<svg data-v-0dd9719b="" version="1.0" xmlns="http://www.w3.org/2000/svg" xmlns:xlink="http://www.w3.org/1999/xlink" width="100%" height="100%" viewBox="0 0 340.000000 250.000000" preserveAspectRatio="xMidYMid meet" color-interpolation-filters="sRGB" style="margin: auto;"> <rect data-v-0dd9719b="" x="0" y="0" width="100%" height="100%" fill="#fff" fill-opacity="1" class="background"></rect> <rect data-v-0dd9719b="" x="0" y="0" width="100%" height="100%" fill="url(#watermark)" fill-opacity="1" class="watermarklayer"></rect> <g data-v-0dd9719b="" fill="#ffd100" class="icon-text-wrapper icon-svg-group iconsvg" transform="translate(48.70000457763672,95.00539970397949)"><g class="iconsvg-imagesvg" transform="translate(0,0)"><g><rect fill="#ffd100" fill-opacity="0" stroke-width="2" x="0" y="0" width="60" height="59.98920194365014" class="image-rect"></rect> <svg x="0" y="0" width="60" height="59.98920194365014" filtersec="colorsb6632623640" class="image-svg-svg primary" style="overflow: visible;"><svg version="1.1" id="图层_1" xmlns="http://www.w3.org/2000/svg" xmlns:xlink="http://www.w3.org/1999/xlink" x="0px" y="0px" viewBox="0.5008752346038818 0.495391845703125 99.45086669921875 99.43343353271484" enable-background="new 0 0 100 100" xml:space="preserve">
<g>
	<path fill="#FFD100" d="M60.13,98.93C87,93.47,104.41,67.17,98.95,40.31C93.49,13.45,67.19-3.97,40.33,1.5
		c-2.01,0.41-3.31,2.37-2.9,4.38c0.41,2.01,2.37,3.31,4.38,2.9c22.85-4.65,45.22,10.17,49.87,33.02
		c4.65,22.85-10.17,45.22-33.02,49.87c-9.83,2-20.08,0.43-28.85-4.41c-0.87-0.48-1.87-0.6-2.84-0.31L14.49,90.6l1.85-13.3
		c0.13-0.94-0.1-1.89-0.65-2.66c-3.4-4.8-5.73-10.19-6.91-16.01c-1.03-5.05-1.13-10.17-0.31-15.22c0.33-2.02-1.04-3.93-3.07-4.26
		c-2.03-0.33-3.93,1.05-4.26,3.07C0.18,48.16,0.3,54.18,1.51,60.12C2.8,66.46,5.24,72.37,8.79,77.7L6.34,95.26
		c-0.17,1.25,0.3,2.5,1.25,3.32c0.95,0.82,2.26,1.11,3.47,0.75l16.54-4.85C37.6,99.6,49.09,101.18,60.13,98.93z"></path>
	<path fill="#FF7500" d="M43.55,17.38c18.1-3.68,35.83,8.05,39.51,26.16c3.68,18.1-8.05,35.83-26.16,39.51
		c-2.01,0.41-3.97-0.89-4.38-2.9c-0.41-2.01,0.89-3.97,2.9-4.38c14.09-2.86,23.23-16.66,20.36-30.75
		c-2.86-14.09-16.66-23.23-30.75-20.36c-14.09,2.86-23.23,16.66-20.36,30.75c0.88,4.34,2.86,8.4,5.72,11.74
		c1.33,1.56,1.15,3.9-0.41,5.23c-0.5,0.42-1.07,0.7-1.67,0.82c-1.28,0.26-2.66-0.16-3.56-1.22c-3.68-4.3-6.22-9.51-7.35-15.09
		C13.72,38.78,25.45,21.06,43.55,17.38z"></path>
	<path fill="#FFD100" d="M53.39,65.77c8.57-1.74,14.13-10.14,12.39-18.71S55.64,32.92,47.07,34.66c-5.43,1.1-9.82,4.87-11.73,10.08
		c-0.71,1.92,0.28,4.06,2.2,4.77c1.92,0.71,4.06-0.28,4.77-2.2c1.02-2.77,3.36-4.78,6.25-5.37c4.56-0.93,9.03,2.03,9.96,6.59
		c0.93,4.56-2.03,9.03-6.59,9.96c-2.01,0.41-3.31,2.37-2.9,4.38C49.42,64.88,51.38,66.17,53.39,65.77z"></path>
</g>
</svg></svg> <!----></g></g> <g transform="translate(67,2.0033512115478516)"><g data-gra="path-name" fill-rule="" class="tp-name iconsvg-namesvg" transform="translate(0,0)"><g transform="scale(1)"><g><path d="M42.36-35.51L42.36-35.51 42.36-31.82Q42.36-31.82 42.01-31.82L42.01-31.82Q38.32-32.34 35.86-32.34L35.86-32.34 9.67-32.34Q9.67-24.26 9.67-16.17L9.67-16.17Q9.32-3.69 4.39 4.39L4.39 4.39Q3.34 2.29 1.41 1.05L1.41 1.05Q4.04-2.81 5.1-7.38L5.1-7.38Q5.98-11.6 5.98-19.86L5.98-19.86 5.98-31.46Q5.98-33.57 5.45-35.51L5.45-35.51Q8.26-35.16 9.84-35.16L9.84-35.16 36.04-35.16Q38.14-35.16 42.36-35.51ZM40.43-30.06L40.43-30.06 40.43-26.89Q37.27-27.25 35.16-27.25L35.16-27.25 26.37-27.25 25.84-24.96 33.93-24.96Q35.86-24.96 37.97-25.31L37.97-25.31Q37.97-25.14 37.79-24.61L37.79-24.61Q37.62-23.03 37.62-22.15L37.62-22.15 37.62-13.01Q37.62-11.43 37.97-9.32L37.97-9.32Q35.86-9.84 34.1-9.67L34.1-9.67 23.91-9.67 21.09-7.38 31.82-7.38Q35.68-7.38 37.44-7.73L37.44-7.73Q33.93-3.34 29-0.18L29-0.18Q34.45 0.18 42.19 0.18L42.19 0.18Q40.78 2.11 40.25 4.04L40.25 4.04Q29 2.81 25.49 1.41L25.49 1.41Q19.34 3.69 10.55 4.57L10.55 4.57Q10.37 3.34 8.96 1.76L8.96 1.76Q8.79 1.41 8.61 1.23L8.61 1.23Q16.17 1.41 22.68 0L22.68 0Q20.04-2.46 18.46-4.57L18.46-4.57Q15.47-2.29 12.3-0.35L12.3-0.35Q11.43-1.58 8.96-2.64L8.96-2.64Q13.71-4.22 19.86-9.67L19.86-9.67 18.11-9.67Q16.7-9.67 14.06-9.32L14.06-9.32Q14.41-11.07 14.41-13.01L14.41-13.01 14.41-21.8Q14.41-25.31 14.24-25.31L14.24-25.31Q14.59-25.31 15.12-25.14L15.12-25.14Q16.7-24.96 18.11-24.96L18.11-24.96 22.68-24.96 23.2-27.25 17.23-27.25Q13.89-27.25 11.6-26.89L11.6-26.89 11.6-30.06Q14.41-29.71 17.23-29.71L17.23-29.71 35.16-29.71Q37.27-29.71 40.43-30.06ZM34.28-20.57L34.28-22.68 17.93-22.68 17.93-20.57 34.28-20.57ZM34.28-16.35L34.28-18.28 17.93-18.28 17.93-16.35 34.28-16.35ZM34.28-14.06L17.93-14.06 17.93-12.13 34.28-12.13 34.28-14.06ZM31.46-5.27L21.27-5.27Q23.73-2.46 25.66-1.41L25.66-1.41Q28.65-2.64 31.46-5.27L31.46-5.27ZM54.32-33.93L57.48-35.51Q58.54-34.1 61.35-29.88L61.35-29.88Q61.52-29.36 61.7-29.18L61.7-29.18 58.18-27.25Q56.43-30.76 54.32-33.93L54.32-33.93ZM50.27-26.72L50.27-26.72Q50.63-26.72 51.33-26.72L51.33-26.72Q55.2-26.54 55.02-26.02L55.02-26.02Q55.02-25.84 54.84-25.31L54.84-25.31Q54.49-23.38 54.49-20.57L54.49-20.57 54.49-4.39Q54.49 1.41 54.67 3.16L54.67 3.16 50.27 3.16Q50.27 2.64 50.45 1.58L50.45 1.58Q50.8-1.93 50.8-4.75L50.8-4.75 50.8-20.57Q50.8-23.91 50.27-26.72ZM85.25-33.57L85.25-33.57Q84.73-30.94 84.73-27.25L84.73-27.25 84.73-0.53Q85.08 2.11 77.17 3.52L77.17 3.52Q76.82 0.88 75.23-0.88L75.23-0.88Q80.86-0.18 80.86-3.34L80.86-3.34 80.86-30.06Q70.84-30.06 68.91-30.06L68.91-30.06Q65.92-29.88 64.69-29.71L64.69-29.71 64.69-33.57Q66.8-33.4 69.43-33.4L69.43-33.4 79.1-33.4Q84.2-33.4 85.25-33.57ZM106-34.8L106-34.8Q109.16-34.8 109.69-34.1L109.69-34.1Q109.69-33.93 109.51-33.4L109.51-33.4Q109.16-32.7 109.16-32.34L109.16-32.34 109.16-2.99Q109.16 0.7 109.34 2.99L109.34 2.99 105.64 2.99Q106 0.53 106-2.99L106-2.99 106-30.41Q106-33.22 106-34.8ZM94.39-34.28L94.39-34.28Q98.26-34.28 98.61-33.57L98.61-33.57Q98.61-33.4 98.44-33.22L98.44-33.22Q97.91-32.17 97.91-30.06L97.91-30.06Q97.91-27.77 97.73-22.32L97.73-22.32Q97.56-12.3 97.38-7.73L97.38-7.73Q97.03-1.58 94.22 3.16L94.22 3.16Q93.52 2.46 91.93 1.41L91.93 1.41Q91.41 1.05 91.05 0.88L91.05 0.88Q93.52-1.41 94.22-8.09L94.22-8.09Q95.1-14.41 94.57-30.76L94.57-30.76Q94.57-32.7 94.39-34.28ZM132.19-33.22L132.19-33.22 132.19-29.71Q131.66-29.71 129.02-29.71L129.02-29.71Q126.21-29.88 125.51-29.88L125.51-29.88 122.7-29.88 121.64-25.49 124.8-25.49Q128.5-25.49 130.25-25.66L130.25-25.66Q129.9-23.38 129.9-19.34L129.9-19.34 129.9-12.13Q129.9-9.49 130.25-6.33L130.25-6.33 126.39-6.33Q126.56-8.26 126.56-12.48L126.56-12.48 126.56-22.32 116.19-22.32 116.19-11.43Q116.19-7.73 116.37-6.33L116.37-6.33 112.85-6.33Q112.85-6.86 112.85-8.61L112.85-8.61Q113.03-10.72 113.03-11.6L113.03-11.6 113.03-19.69Q112.85-23.91 112.68-25.66L112.68-25.66Q114.26-25.49 117.77-25.49L117.77-25.49 118.65-25.49 119.53-29.88 117.6-29.88Q111.62-29.88 111.62-29.71L111.62-29.71 111.62-33.22Q115.49-32.87 117.6-32.87L117.6-32.87 125.68-32.87Q129.55-32.87 132.19-33.22ZM100.2-31.11L100.2-31.11Q104.24-31.11 104.06-30.76L104.06-30.76Q104.06-30.41 103.89-29.88L103.89-29.88Q103.54-28.83 103.54-27.77L103.54-27.77 103.54-7.21Q103.54-0.88 103.54-1.23L103.54-1.23 100.02-1.23Q100.37-4.04 100.37-7.38L100.37-7.38 100.37-28.48Q100.55-29.71 100.2-31.11ZM119.71-20.04L119.71-20.04Q123.75-20.04 123.57-19.51L123.57-19.51Q123.57-19.34 123.22-18.81L123.22-18.81Q122.87-18.11 122.87-17.23L122.87-17.23Q122.87-7.38 120.76-3.52L120.76-3.52Q118.13 0.18 112.32 2.99L112.32 2.99Q111.8 1.58 109.86 0L109.86 0Q116.72-1.93 118.3-5.63L118.3-5.63Q120.06-8.79 119.71-20.04ZM121.82-3.16L124.28-5.98Q129.38-2.29 132.89 0.7L132.89 0.7 129.9 3.52Q126.56-0.18 121.82-3.16L121.82-3.16ZM168.57-36.04L168.57-36.04Q172.79-35.86 173.14-35.51L173.14-35.51Q173.14-35.33 172.97-34.98L172.97-34.98Q172.27-32.87 172.27-30.06L172.27-30.06Q175.61-30.06 177.01-30.41L177.01-30.41 177.01-26.89Q175.61-27.07 172.27-27.07L172.27-27.07 172.27-8.96Q175.61-8.96 177.01-9.32L177.01-9.32 177.01-5.8Q175.61-5.98 171.56-5.98L171.56-5.98 158.38-5.98Q154.69-5.98 152.93-5.8L152.93-5.8 152.93-9.32Q153.98-8.96 156.97-8.96L156.97-8.96 156.97-27.07Q156.97-26.89 154.86-26.89L154.86-26.89Q153.11-26.72 152.23-26.72L152.23-26.72 152.23-30.41Q153.98-30.06 156.97-30.06L156.97-30.06Q156.97-33.4 156.62-35.68L156.62-35.68Q161.19-35.68 161.02-35.33L161.02-35.33Q161.02-35.16 160.84-34.98L160.84-34.98Q160.14-33.22 160.31-30.06L160.31-30.06 168.93-30.06Q169.1-34.45 168.57-36.04ZM136.93-29.88L136.93-33.4Q138.52-33.05 141.86-33.05L141.86-33.05 145.9-33.05Q149.41-33.05 151.17-33.4L151.17-33.4Q150.82-31.99 150.64-29.71L150.64-29.71Q150.47-29 150.47-28.65L150.47-28.65 149.77-15.29Q151.35-15.29 153.11-15.64L153.11-15.64Q152.93-14.59 152.75-11.6L152.75-11.6Q152.4-7.03 152.05-3.52L152.05-3.52Q151.7 0.53 150.29 1.41L150.29 1.41Q149.24 2.64 143.79 3.69L143.79 3.69Q143.79 1.23 142.21-0.7L142.21-0.7Q148.89 0.18 148.54-3.87L148.54-3.87Q149.06-8.09 149.24-12.3L149.24-12.3Q142.38-11.78 139.22-11.6L139.22-11.6Q139.39-13.18 139.39-19.34L139.39-19.34Q139.39-19.34 139.39-19.51L139.39-19.51Q139.57-26.37 139.22-27.95L139.22-27.95Q140.27-27.95 141.86-27.77L141.86-27.77Q143.79-27.77 143.79-27.6L143.79-27.6Q143.79-27.42 143.61-26.89L143.61-26.89Q142.91-24.79 142.73-22.15L142.73-22.15 142.56-14.94 146.43-15.12 147.3-30.06 141.68-30.06Q139.04-30.06 136.93-29.88L136.93-29.88ZM168.93-27.07L160.31-27.07 160.31-22.85 168.93-22.85 168.93-27.07ZM168.93-20.04L160.31-20.04 160.31-16.17 168.93-16.17 168.93-20.04ZM168.93-13.18L160.31-13.18 160.31-8.96 168.93-8.96 168.93-13.18ZM147.66-8.44L147.66-8.44Q147.3-7.73 147.3-5.45L147.3-5.45Q143.61-5.1 137.64-3.52L137.64-3.52Q137.46-5.98 137.11-7.38L137.11-7.38Q140.1-7.38 146.25-8.26L146.25-8.26Q147.3-8.44 147.66-8.44ZM165.76-2.46L168.4-4.92Q173.5-1.58 177.01 0.88L177.01 0.88 174.02 3.69Q171.21 0.35 165.76-2.46L165.76-2.46ZM159.96-4.75L159.96-4.75Q160.66-4.39 161.89-3.69L161.89-3.69Q164-2.46 163.65-2.29L163.65-2.29Q163.65-2.11 163.13-2.11L163.13-2.11Q162.07-2.11 161.19-1.23L161.19-1.23Q160.49-0.7 159.43 0L159.43 0Q156.97 2.11 154.69 4.04L154.69 4.04Q153.28 2.46 151.35 1.93L151.35 1.93Q155.21 0.18 159.96-4.75Z" transform="translate(-1.409999966621399, 36.040000915527344)"></path></g> <!----> <!----> <!----> <!----> <!----> <!----> <!----></g></g> <g data-gra="path-slogan" fill-rule="" class="tp-slogan iconsvg-slogansvg" fill="#ffd100" transform="translate(40.63999557495117,46.61000061035156)"><!----> <!----> <g transform="scale(1, 1)"><g transform="scale(1)"><path d="M7.64-8.58L4.73-4.41L7.78 0L6.33 0L3.98-3.52L1.64 0L0.23 0L3.33-4.41L0.42-8.58L1.88-8.58L4.03-5.30L6.23-8.58L7.64-8.58ZM9.05-8.58L10.22-8.58L10.22 0L9.05 0L9.05-8.58ZM17.86 0L17.02-2.48L13.55-2.48L12.66 0L11.48 0L14.72-8.58L16.03-8.58L19.13 0L17.86 0ZM15.28-7.31L13.92-3.52L16.59-3.52L15.33-7.31L15.28-7.31ZM28.41-8.58L28.41 0L27.28 0L27.28-5.06Q27.28-5.77 27.28-7.22L27.28-7.22L24.84 0L23.67 0L21.28-7.22L21.23-7.22Q21.23-6.70 21.28-5.67L21.28-5.67Q21.28-5.16 21.28-5.06L21.28-5.06L21.28 0L20.11 0L20.11-8.58L21.80-8.58L24.28-1.31L26.72-8.58L28.41-8.58ZM31.41-1.03L36.56-1.03L36.56 0L30.23 0L30.23-8.58L36.47-8.58L36.47-7.59L31.41-7.59L31.41-4.92L36.09-4.92L36.09-3.89L31.41-3.89L31.41-1.03ZM39.47-8.58L43.78-1.64L43.78-8.58L44.91-8.58L44.91 0L43.59 0L39.23-6.94L39.19-6.94L39.19 0L38.06 0L38.06-8.58L39.47-8.58ZM56.30-6.09L56.30-6.09L55.22-6.09Q55.13-7.73 53.06-7.83L53.06-7.83Q51.14-7.78 51.14-6.33L51.14-6.33Q51.14-5.39 52.17-5.25L52.17-5.25L54.61-4.69Q56.53-4.22 56.53-2.34L56.53-2.34Q56.48 0.05 53.16 0.14L53.16 0.14Q51.33 0.14 50.58-0.61L50.58-0.61Q49.64-1.31 49.69-2.77L49.69-2.77L50.81-2.77Q50.86-0.80 53.16-0.75L53.16-0.75Q55.41-0.80 55.45-2.20L55.45-2.20Q55.64-3.38 53.58-3.75L53.58-3.75L51.80-4.13Q49.97-4.64 49.97-6.19L49.97-6.19Q50.11-8.72 52.97-8.81L52.97-8.81Q56.20-8.81 56.30-6.09ZM59.16-5.06L63.66-5.06L63.66-8.58L64.83-8.58L64.83 0L63.66 0L63.66-3.98L59.16-3.98L59.16 0L57.98 0L57.98-8.58L59.16-8.58L59.16-5.06ZM72.28-3.19L72.28-8.58L73.45-8.58L73.45-3.05Q73.31 0.05 69.94 0.14L69.94 0.14Q66.80 0.05 66.66-2.86L66.66-2.86L66.66-8.58L67.83-8.58L67.83-3.19Q67.88-0.84 69.98-0.80L69.98-0.80Q72.28-0.84 72.28-3.19L72.28-3.19ZM76.64-8.58L80.95-1.64L80.95-8.58L82.08-8.58L82.08 0L80.77 0L76.41-6.94L76.36-6.94L76.36 0L75.23 0L75.23-8.58L76.64-8.58ZM88.88-1.08L87.98-1.78L88.59-2.48L89.67-1.64Q90.66-2.63 90.66-4.27L90.66-4.27Q90.47-7.64 87.66-7.83L87.66-7.83Q84.80-7.69 84.66-4.27L84.66-4.27Q84.80-0.94 87.66-0.80L87.66-0.80Q88.36-0.80 88.88-1.08L88.88-1.08ZM90.61-0.94L91.73-0.05L91.17 0.56L89.86-0.33Q89.02 0.14 87.66 0.14L87.66 0.14Q83.72 0 83.44-4.27L83.44-4.27Q83.67-8.72 87.66-8.81L87.66-8.81Q91.55-8.67 91.83-4.27L91.83-4.27Q91.78-2.20 90.61-0.94L90.61-0.94ZM93.38-8.58L94.55-8.58L94.55 0L93.38 0L93.38-8.58Z" transform="translate(-0.234375, 8.8125)"></path></g></g></g></g></g><defs v-gra="od"></defs></svg>